<svg width="100" height="100" viewBox="0 0 100 100" fill="none" xmlns="http://www.w3.org/2000/svg">
<path d="M100 50.4152H17.7728C13.7336 50.4152 8.48249 49.5843 4.84714 45.8452C0.403927 41.2752 0 37.4668 0 33.6585V7H55.5338C68.2639 7 81.5859 12.9349 90.076 22.6143C97.7494 31.3625 100 41.2752 100 50.4152Z" fill="#165AAA"/>
<path d="M100 50.4153H17.7728C13.7336 50.4153 8.48249 51.2462 4.84714 54.9853C0.403927 59.5554 0 63.3637 0 67.1721V93.8306H55.5338C68.2639 93.8306 81.5859 87.8956 90.076 78.2163C97.7494 69.4681 100 59.5554 100 50.4153Z" fill="#EAC131"/>
<path d="M43.3651 51.2453C45.2041 53.3938 45.5544 56.4584 45.4996 57.7222C45.9922 56.3531 46.9774 53.5517 46.9774 53.299C43.0367 43.3152 34.8268 40.8192 31.2144 40.8192C37.7823 39.9346 43.4745 44.5579 45.4996 46.9801C44.9742 42.5569 40.9021 39.6608 38.9317 38.7656C32.0394 35.7325 26.427 38.8709 24.4823 40.8192C25.5222 40.9245 28.5216 42.3673 32.1996 47.2961C35.8776 52.2248 41.1757 51.9825 43.3651 51.2453Z" fill="white"/>
<path d="M51.9033 82.6817C51.4107 73.7826 50.951 54.3416 53.0527 47.77C56.2272 46.9801 62.3463 41.8934 61.4268 27.8655C54.64 30.2878 42.7411 37.5018 49.4404 46.9801C50.9729 43.7154 54.7275 36.5224 57.4861 33.8685C53.5453 40.1347 45.8609 57.817 46.649 78.4165C47.7211 78.6503 49.7741 79.481 51.0552 81.1263H51.0417C33.5451 81.1263 19.3612 67.4847 19.3612 50.6568C19.3612 33.8289 33.5451 20.1873 51.0417 20.1873C68.5383 20.1873 82.7222 33.8289 82.7222 50.6568H84.3422C84.3422 32.9684 69.4331 18.6292 51.0417 18.6292C32.6503 18.6292 17.7412 32.9684 17.7412 50.6568C17.7412 68.3452 32.6503 82.6844 51.0417 82.6844L51.9033 82.6817Z" fill="white"/>
<path fill-rule="evenodd" clip-rule="evenodd" d="M82.7284 50.6568C82.7284 58.6082 79.4972 66.2447 73.7244 71.9367C67.9516 77.6286 60.0944 80.9252 51.8295 81.1229L51.8696 82.6745C51.8742 82.6744 51.8788 82.6743 51.8834 82.6742C52.3732 82.6623 52.8616 82.64 53.3484 82.6075C61.4884 82.0642 69.1581 78.6618 74.8796 73.0205C80.6011 67.3791 83.947 59.9202 84.3093 52.0802C84.3312 51.607 84.3422 51.1325 84.3422 50.6568H82.7284Z" fill="white"/>
</svg>
